<mxfile host="Electron" modified="2025-01-09T13:21:50.872Z" agent="Mozilla/5.0 (Windows NT 10.0; Win64; x64) AppleWebKit/537.36 (KHTML, like Gecko) draw.io/24.6.4 Chrome/124.0.6367.207 Electron/30.0.6 Safari/537.36" etag="7sXMrezFdwOq5IgFEJZD" version="24.6.4" type="device">
  <diagram name="Strona-1" id="vXEg3ADPcCnLRrKtcYsG">
    <mxGraphModel dx="1895" dy="1826" grid="1" gridSize="10" guides="1" tooltips="1" connect="1" arrows="1" fold="1" page="1" pageScale="1" pageWidth="827" pageHeight="1169" math="0" shadow="0">
      <root>
        <mxCell id="0" />
        <mxCell id="1" parent="0" />
        <mxCell id="pWXEcm-Dow9cRPmQ6xmz-44" value="" style="edgeStyle=orthogonalEdgeStyle;rounded=0;orthogonalLoop=1;jettySize=auto;html=1;" edge="1" parent="1" source="pWXEcm-Dow9cRPmQ6xmz-35" target="pWXEcm-Dow9cRPmQ6xmz-43">
          <mxGeometry relative="1" as="geometry" />
        </mxCell>
        <mxCell id="pWXEcm-Dow9cRPmQ6xmz-35" value="" style="ellipse;" vertex="1" parent="1">
          <mxGeometry x="360" y="40" width="30" height="30" as="geometry" />
        </mxCell>
        <mxCell id="pWXEcm-Dow9cRPmQ6xmz-46" value="yes" style="edgeStyle=orthogonalEdgeStyle;rounded=0;orthogonalLoop=1;jettySize=auto;html=1;" edge="1" parent="1" source="pWXEcm-Dow9cRPmQ6xmz-43" target="pWXEcm-Dow9cRPmQ6xmz-45">
          <mxGeometry relative="1" as="geometry" />
        </mxCell>
        <mxCell id="pWXEcm-Dow9cRPmQ6xmz-53" value="no" style="edgeStyle=orthogonalEdgeStyle;rounded=0;orthogonalLoop=1;jettySize=auto;html=1;" edge="1" parent="1" source="pWXEcm-Dow9cRPmQ6xmz-43" target="pWXEcm-Dow9cRPmQ6xmz-52">
          <mxGeometry relative="1" as="geometry" />
        </mxCell>
        <mxCell id="pWXEcm-Dow9cRPmQ6xmz-43" value="has product" style="rhombus;whiteSpace=wrap;html=1;" vertex="1" parent="1">
          <mxGeometry x="335" y="125" width="80" height="80" as="geometry" />
        </mxCell>
        <mxCell id="pWXEcm-Dow9cRPmQ6xmz-48" value="yes" style="edgeStyle=orthogonalEdgeStyle;rounded=0;orthogonalLoop=1;jettySize=auto;html=1;" edge="1" parent="1" source="pWXEcm-Dow9cRPmQ6xmz-45" target="pWXEcm-Dow9cRPmQ6xmz-47">
          <mxGeometry relative="1" as="geometry" />
        </mxCell>
        <mxCell id="pWXEcm-Dow9cRPmQ6xmz-58" value="no" style="edgeStyle=orthogonalEdgeStyle;rounded=0;orthogonalLoop=1;jettySize=auto;html=1;" edge="1" parent="1" source="pWXEcm-Dow9cRPmQ6xmz-45" target="pWXEcm-Dow9cRPmQ6xmz-57">
          <mxGeometry relative="1" as="geometry" />
        </mxCell>
        <mxCell id="pWXEcm-Dow9cRPmQ6xmz-45" value="has header" style="rhombus;whiteSpace=wrap;html=1;" vertex="1" parent="1">
          <mxGeometry x="335" y="285" width="80" height="80" as="geometry" />
        </mxCell>
        <mxCell id="pWXEcm-Dow9cRPmQ6xmz-62" value="no" style="edgeStyle=orthogonalEdgeStyle;rounded=0;orthogonalLoop=1;jettySize=auto;html=1;" edge="1" parent="1" source="pWXEcm-Dow9cRPmQ6xmz-47" target="pWXEcm-Dow9cRPmQ6xmz-61">
          <mxGeometry relative="1" as="geometry" />
        </mxCell>
        <mxCell id="pWXEcm-Dow9cRPmQ6xmz-77" value="yest" style="edgeStyle=orthogonalEdgeStyle;rounded=0;orthogonalLoop=1;jettySize=auto;html=1;" edge="1" parent="1" source="pWXEcm-Dow9cRPmQ6xmz-47" target="pWXEcm-Dow9cRPmQ6xmz-76">
          <mxGeometry relative="1" as="geometry" />
        </mxCell>
        <mxCell id="pWXEcm-Dow9cRPmQ6xmz-47" value="has description" style="rhombus;whiteSpace=wrap;html=1;" vertex="1" parent="1">
          <mxGeometry x="335" y="445" width="80" height="80" as="geometry" />
        </mxCell>
        <mxCell id="pWXEcm-Dow9cRPmQ6xmz-51" value="" style="shape=sumEllipse;perimeter=ellipsePerimeter;html=1;backgroundOutline=1;" vertex="1" parent="1">
          <mxGeometry x="40" y="150" width="30" height="30" as="geometry" />
        </mxCell>
        <mxCell id="pWXEcm-Dow9cRPmQ6xmz-56" style="edgeStyle=orthogonalEdgeStyle;rounded=0;orthogonalLoop=1;jettySize=auto;html=1;entryX=1;entryY=0.5;entryDx=0;entryDy=0;" edge="1" parent="1" source="pWXEcm-Dow9cRPmQ6xmz-52" target="pWXEcm-Dow9cRPmQ6xmz-51">
          <mxGeometry relative="1" as="geometry" />
        </mxCell>
        <mxCell id="pWXEcm-Dow9cRPmQ6xmz-52" value="throw missing object exception" style="whiteSpace=wrap;html=1;" vertex="1" parent="1">
          <mxGeometry x="155" y="135" width="120" height="60" as="geometry" />
        </mxCell>
        <mxCell id="pWXEcm-Dow9cRPmQ6xmz-60" value="" style="edgeStyle=orthogonalEdgeStyle;rounded=0;orthogonalLoop=1;jettySize=auto;html=1;" edge="1" parent="1" source="pWXEcm-Dow9cRPmQ6xmz-57" target="pWXEcm-Dow9cRPmQ6xmz-59">
          <mxGeometry relative="1" as="geometry" />
        </mxCell>
        <mxCell id="pWXEcm-Dow9cRPmQ6xmz-57" value="throw missing value exception" style="whiteSpace=wrap;html=1;" vertex="1" parent="1">
          <mxGeometry x="155" y="295" width="120" height="60" as="geometry" />
        </mxCell>
        <mxCell id="pWXEcm-Dow9cRPmQ6xmz-59" value="" style="shape=sumEllipse;perimeter=ellipsePerimeter;html=1;backgroundOutline=1;" vertex="1" parent="1">
          <mxGeometry x="40" y="310" width="30" height="30" as="geometry" />
        </mxCell>
        <mxCell id="pWXEcm-Dow9cRPmQ6xmz-64" value="" style="edgeStyle=orthogonalEdgeStyle;rounded=0;orthogonalLoop=1;jettySize=auto;html=1;" edge="1" parent="1" source="pWXEcm-Dow9cRPmQ6xmz-61" target="pWXEcm-Dow9cRPmQ6xmz-63">
          <mxGeometry relative="1" as="geometry" />
        </mxCell>
        <mxCell id="pWXEcm-Dow9cRPmQ6xmz-61" value="throw missing value exception" style="whiteSpace=wrap;html=1;" vertex="1" parent="1">
          <mxGeometry x="155" y="455" width="120" height="60" as="geometry" />
        </mxCell>
        <mxCell id="pWXEcm-Dow9cRPmQ6xmz-63" value="" style="shape=sumEllipse;perimeter=ellipsePerimeter;html=1;backgroundOutline=1;" vertex="1" parent="1">
          <mxGeometry x="40" y="470" width="30" height="30" as="geometry" />
        </mxCell>
        <mxCell id="pWXEcm-Dow9cRPmQ6xmz-69" value="" style="edgeStyle=orthogonalEdgeStyle;rounded=0;orthogonalLoop=1;jettySize=auto;html=1;" edge="1" parent="1" source="pWXEcm-Dow9cRPmQ6xmz-66" target="pWXEcm-Dow9cRPmQ6xmz-68">
          <mxGeometry relative="1" as="geometry" />
        </mxCell>
        <mxCell id="pWXEcm-Dow9cRPmQ6xmz-66" value="set initial job status from configuration" style="whiteSpace=wrap;html=1;" vertex="1" parent="1">
          <mxGeometry x="315" y="760" width="120" height="60" as="geometry" />
        </mxCell>
        <mxCell id="pWXEcm-Dow9cRPmQ6xmz-71" value="" style="edgeStyle=orthogonalEdgeStyle;rounded=0;orthogonalLoop=1;jettySize=auto;html=1;" edge="1" parent="1" source="pWXEcm-Dow9cRPmQ6xmz-68" target="pWXEcm-Dow9cRPmQ6xmz-70">
          <mxGeometry relative="1" as="geometry" />
        </mxCell>
        <mxCell id="pWXEcm-Dow9cRPmQ6xmz-68" value="add initial job status to job status history" style="whiteSpace=wrap;html=1;" vertex="1" parent="1">
          <mxGeometry x="315" y="900" width="120" height="60" as="geometry" />
        </mxCell>
        <mxCell id="pWXEcm-Dow9cRPmQ6xmz-88" value="" style="edgeStyle=orthogonalEdgeStyle;rounded=0;orthogonalLoop=1;jettySize=auto;html=1;" edge="1" parent="1" source="pWXEcm-Dow9cRPmQ6xmz-70" target="pWXEcm-Dow9cRPmQ6xmz-87">
          <mxGeometry relative="1" as="geometry" />
        </mxCell>
        <mxCell id="pWXEcm-Dow9cRPmQ6xmz-70" value="set creation date &amp;amp; last modified date to now (UTC)" style="whiteSpace=wrap;html=1;" vertex="1" parent="1">
          <mxGeometry x="315" y="1040" width="120" height="60" as="geometry" />
        </mxCell>
        <mxCell id="pWXEcm-Dow9cRPmQ6xmz-78" value="yes" style="edgeStyle=orthogonalEdgeStyle;rounded=0;orthogonalLoop=1;jettySize=auto;html=1;" edge="1" parent="1" source="pWXEcm-Dow9cRPmQ6xmz-76" target="pWXEcm-Dow9cRPmQ6xmz-66">
          <mxGeometry relative="1" as="geometry" />
        </mxCell>
        <mxCell id="pWXEcm-Dow9cRPmQ6xmz-85" value="no" style="edgeStyle=orthogonalEdgeStyle;rounded=0;orthogonalLoop=1;jettySize=auto;html=1;" edge="1" parent="1" source="pWXEcm-Dow9cRPmQ6xmz-76" target="pWXEcm-Dow9cRPmQ6xmz-83">
          <mxGeometry relative="1" as="geometry" />
        </mxCell>
        <mxCell id="pWXEcm-Dow9cRPmQ6xmz-76" value="has job type" style="rhombus;whiteSpace=wrap;html=1;" vertex="1" parent="1">
          <mxGeometry x="335" y="605" width="80" height="80" as="geometry" />
        </mxCell>
        <mxCell id="pWXEcm-Dow9cRPmQ6xmz-82" value="" style="edgeStyle=orthogonalEdgeStyle;rounded=0;orthogonalLoop=1;jettySize=auto;html=1;" edge="1" parent="1" source="pWXEcm-Dow9cRPmQ6xmz-83" target="pWXEcm-Dow9cRPmQ6xmz-84">
          <mxGeometry relative="1" as="geometry" />
        </mxCell>
        <mxCell id="pWXEcm-Dow9cRPmQ6xmz-83" value="throw missing value exception" style="whiteSpace=wrap;html=1;" vertex="1" parent="1">
          <mxGeometry x="155" y="615" width="120" height="60" as="geometry" />
        </mxCell>
        <mxCell id="pWXEcm-Dow9cRPmQ6xmz-84" value="" style="shape=sumEllipse;perimeter=ellipsePerimeter;html=1;backgroundOutline=1;" vertex="1" parent="1">
          <mxGeometry x="40" y="630" width="30" height="30" as="geometry" />
        </mxCell>
        <mxCell id="pWXEcm-Dow9cRPmQ6xmz-93" value="" style="edgeStyle=orthogonalEdgeStyle;rounded=0;orthogonalLoop=1;jettySize=auto;html=1;" edge="1" parent="1" source="pWXEcm-Dow9cRPmQ6xmz-87" target="pWXEcm-Dow9cRPmQ6xmz-92">
          <mxGeometry relative="1" as="geometry" />
        </mxCell>
        <mxCell id="pWXEcm-Dow9cRPmQ6xmz-87" value="set curent owner team based on team status map" style="whiteSpace=wrap;html=1;" vertex="1" parent="1">
          <mxGeometry x="315" y="1169" width="120" height="60" as="geometry" />
        </mxCell>
        <mxCell id="pWXEcm-Dow9cRPmQ6xmz-95" value="" style="edgeStyle=orthogonalEdgeStyle;rounded=0;orthogonalLoop=1;jettySize=auto;html=1;" edge="1" parent="1" source="pWXEcm-Dow9cRPmQ6xmz-92" target="pWXEcm-Dow9cRPmQ6xmz-94">
          <mxGeometry relative="1" as="geometry" />
        </mxCell>
        <mxCell id="pWXEcm-Dow9cRPmQ6xmz-92" value="insert new job into database" style="whiteSpace=wrap;html=1;" vertex="1" parent="1">
          <mxGeometry x="315" y="1309" width="120" height="60" as="geometry" />
        </mxCell>
        <mxCell id="pWXEcm-Dow9cRPmQ6xmz-94" value="" style="ellipse;html=1;shape=endState;fillColor=strokeColor;" vertex="1" parent="1">
          <mxGeometry x="360" y="1440" width="30" height="30" as="geometry" />
        </mxCell>
        <mxCell id="pWXEcm-Dow9cRPmQ6xmz-96" value="Add new bug" style="shape=umlFrame;whiteSpace=wrap;html=1;pointerEvents=0;recursiveResize=0;container=1;collapsible=0;width=160;" vertex="1" parent="1">
          <mxGeometry x="10" y="15" width="750" height="1515" as="geometry" />
        </mxCell>
      </root>
    </mxGraphModel>
  </diagram>
</mxfile>
